<svg xmlns="http://www.w3.org/2000/svg" viewBox="0 0 233.47 118.07"><defs><style>.cls-1{fill:#0c0b16;}</style></defs><g id="Layer_2" data-name="Layer 2"><g id="Layer_1-2" data-name="Layer 1"><path class="cls-1" d="M118.84,49.73V12.33a1,1,0,0,1,1-1.05h25.35a1.05,1.05,0,0,1,.87,1.64l-25.35,37.4A1,1,0,0,1,118.84,49.73Z"/><path class="cls-1" d="M114.63,1.05v37.4a1,1,0,0,1-1,1H88.23a1,1,0,0,1-.87-1.63L112.71.46A1.05,1.05,0,0,1,114.63,1.05Z"/><path class="cls-1" d="M35.88,117.34l-6-14H10.48l-6.09,14H0L17.85,75.72h4.68l17.91,41.62ZM20.22,80.45,12.05,99.54H28.22Z"/><path class="cls-1" d="M48.16,117.34V75.72h4.17v37.85H69.56v3.77Z"/><path class="cls-1" d="M88.82,117.34h-4L67.65,75.72h4.56l14.64,36.44,14.7-36.44h4.51Z"/><path class="cls-1" d="M142,117.34l-6-14H116.59l-6.08,14h-4.39L124,75.72h4.68l17.91,41.62ZM126.34,80.45l-8.17,19.09h16.17Z"/><path class="cls-1" d="M170.22,101.8l11.66,15.54h-5.19l-14-18.87c11.66,0,15.6-2,15.6-9.52,0-6.92-4.28-9.46-14-9.46h-5.85v37.85h-4.17V75.72h10.3c13.07,0,17.92,4.73,17.92,13.4C182.5,96.5,178.21,101,170.22,101.8Z"/><path class="cls-1" d="M211.5,118.07a21.83,21.83,0,0,1-22-21.79c0-11.55,10.08-21.29,22-21.29a21.83,21.83,0,0,1,22,21.57C233.47,108.33,223.56,118.07,211.5,118.07Zm0-39.25a17.71,17.71,0,1,0,17.75,17.79A17.93,17.93,0,0,0,211.5,78.82Z"/></g></g></svg>