<svg xmlns="http://www.w3.org/2000/svg" viewBox="0 0 476.42 476.42"><defs><style>.cls-1{fill:#ed3b3b;}.cls-2{fill:#0c0b16;}</style></defs><g id="Layer_2" data-name="Layer 2"><g id="Layer_1-2" data-name="Layer 1"><rect class="cls-1" width="476.42" height="476.42"/><path class="cls-2" d="M240.8,226.75V180.67a1.29,1.29,0,0,1,1.3-1.29h31.23a1.29,1.29,0,0,1,1.07,2l-31.23,46.08A1.3,1.3,0,0,1,240.8,226.75Z"/><path class="cls-2" d="M235.62,166.77v46.08a1.29,1.29,0,0,1-1.3,1.29H203.09a1.29,1.29,0,0,1-1.07-2l31.23-46.08A1.3,1.3,0,0,1,235.62,166.77Z"/><path class="cls-2" d="M138.59,310l-7.43-17.28H107.3L99.8,310H94.39l22-51.28h5.75L144.21,310ZM119.3,264.59l-10.06,23.53h19.91Z"/><path class="cls-2" d="M153.72,310V258.76h5.14v46.63h21.23V310Z"/><path class="cls-2" d="M203.82,310h-5l-21.1-51.28h5.62l18.05,44.9,18.11-44.9h5.55Z"/><path class="cls-2" d="M269.33,310l-7.42-17.28H238L230.54,310h-5.41l22-51.28h5.76L275,310ZM250,264.59,240,288.12H259.9Z"/><path class="cls-2" d="M304.1,290.89,318.47,310h-6.39L294.8,286.8c14.37,0,19.22-2.5,19.22-11.73,0-8.53-5.27-11.66-17.2-11.66H289.6V310h-5.13V258.76h12.69c16.1,0,22.07,5.83,22.07,16.52C319.23,284.37,314,289.85,304.1,290.89Z"/><path class="cls-2" d="M355,310.94a26.88,26.88,0,0,1-27.13-26.85c0-14.22,12.42-26.23,27.13-26.23S382,269.8,382,284.44,369.82,310.94,355,310.94Zm0-48.36c-11.87,0-21.93,9.92-21.93,21.65A21.9,21.9,0,1,0,355,262.58Z"/></g></g></svg>