<?xml version="1.0" encoding="iso-8859-1"?>
<!-- Generator: Adobe Illustrator 16.0.0, SVG Export Plug-In . SVG Version: 6.00 Build 0)  -->
<!DOCTYPE svg PUBLIC "-//W3C//DTD SVG 1.1//EN" "http://www.w3.org/Graphics/SVG/1.1/DTD/svg11.dtd">
<svg version="1.1" id="Capa_1" xmlns="http://www.w3.org/2000/svg" xmlns:xlink="http://www.w3.org/1999/xlink" x="0px" y="0px"
	 width="79.812px" height="79.812px" viewBox="0 0 79.812 79.812" style="enable-background:new 0 0 79.812 79.812;"
	 xml:space="preserve">
<g>
	<g>
		<path d="M45.859,77.181h22.43c0.555,0,1-0.445,1-1V15.646l8.522-9.42v69.955c0,0.556,0.447,1,1,1c0.554,0,1-0.444,1-1V5.014
			c0-0.269-0.108-0.51-0.28-0.688l0.021-0.024c0.371-0.409,0.34-1.042-0.069-1.412c-0.41-0.372-1.043-0.338-1.412,0.069
			l-0.955,1.057H58.32c-0.045,0-0.084,0.021-0.129,0.025c-0.07,0.01-0.14,0.018-0.205,0.042c-0.066,0.024-0.123,0.061-0.185,0.098
			c-0.039,0.023-0.082,0.034-0.119,0.063L45.222,14.488c-0.012,0.011-0.019,0.026-0.028,0.037c-0.054,0.048-0.093,0.105-0.134,0.163
			c-0.034,0.049-0.073,0.094-0.1,0.148c-0.027,0.054-0.037,0.113-0.054,0.173c-0.02,0.067-0.037,0.134-0.041,0.204
			c0,0.017-0.012,0.03-0.012,0.047v7.308H33.398c-0.053,0-0.097,0.022-0.146,0.029c-0.067,0.01-0.133,0.016-0.198,0.04
			c-0.068,0.025-0.128,0.065-0.188,0.105c-0.039,0.025-0.084,0.036-0.12,0.067l-9.969,8.584c-0.012,0.008-0.015,0.02-0.022,0.029
			c-0.054,0.05-0.092,0.111-0.134,0.172c-0.033,0.048-0.072,0.09-0.096,0.141c-0.024,0.053-0.031,0.113-0.048,0.171
			c-0.018,0.07-0.038,0.137-0.042,0.208c0,0.014-0.007,0.023-0.007,0.036v10.431c-0.119-0.05-0.248-0.078-0.385-0.078H9.031
			c-0.058,0-0.104,0.022-0.158,0.032c-0.072,0.013-0.146,0.017-0.214,0.043c-0.08,0.031-0.146,0.085-0.213,0.136
			c-0.036,0.024-0.077,0.039-0.11,0.069l-8.031,7.754c-0.002,0.002-0.003,0.005-0.005,0.009c-0.074,0.072-0.127,0.162-0.176,0.254
			c-0.012,0.022-0.034,0.043-0.044,0.065c-0.007,0.019-0.005,0.039-0.013,0.056c-0.037,0.106-0.064,0.215-0.065,0.327
			C0.002,51.251,0,51.255,0,51.257v24.922c0,0.556,0.448,1,1,1h22.43h22.432L45.859,77.181L45.859,77.181z M24.428,51.26V33.152
			h20.432v42.029H24.428V51.26z M67.289,75.181H46.857v-43.03V16.26h20.432V75.181z M67.845,14.26H48.65l10.028-8.246h16.627
			L67.845,14.26z M44.859,31.152H26.124l7.646-6.584h11.092L44.859,31.152L44.859,31.152z M22.428,44.427v5.832H3.474l5.959-5.754
			h12.61C22.18,44.506,22.31,44.476,22.428,44.427z M2,52.26h20.43v22.922H2V52.26z"/>
		<path d="M63.857,58.351c0.553,0,1-0.445,1-1v-34.89c0-0.554-0.447-1-1-1c-0.552,0-1,0.446-1,1v34.893
			C62.857,57.903,63.306,58.351,63.857,58.351z"/>
	</g>
</g>
<g>
</g>
<g>
</g>
<g>
</g>
<g>
</g>
<g>
</g>
<g>
</g>
<g>
</g>
<g>
</g>
<g>
</g>
<g>
</g>
<g>
</g>
<g>
</g>
<g>
</g>
<g>
</g>
<g>
</g>
</svg>
