<svg width="413" height="168" viewBox="0 0 413 168" fill="none" xmlns="http://www.w3.org/2000/svg">
<path d="M400.094 20.9996H12.906C5.78141 20.9996 1.59185e-05 16.2952 1.59185e-05 10.4998C1.59185e-05 4.70353 5.78248 0 12.906 0H400.094C407.219 0 413 4.70441 413 10.4998C413 16.2952 407.218 20.9996 400.094 20.9996Z" fill="black"/>
<path d="M12.906 73.5H400.094C407.219 73.5 413 78.2044 413 83.9998C413 89.7952 407.218 94.4996 400.094 94.4996H12.906C5.78141 94.4996 1.59185e-05 89.7952 1.59185e-05 83.9998C1.59185e-05 78.2044 5.78141 73.5 12.906 73.5Z" fill="black"/>
<path d="M12.906 147H271.031C278.156 147 283.937 151.704 283.937 157.5C283.937 163.296 278.155 168 271.031 168H12.906C5.78149 168 0.000101682 163.295 0.000101682 157.5C-0.000971132 151.704 5.78149 147 12.906 147Z" fill="black"/>
</svg>
