<svg width="199" height="168" viewBox="0 0 199 168" fill="none" xmlns="http://www.w3.org/2000/svg">
<path d="M192.781 20.9996H6.21861C2.78571 20.9996 3.22543e-06 16.2952 3.22543e-06 10.4998C3.22543e-06 4.70353 2.78623 0 6.21861 0H192.781C196.214 0 199 4.70441 199 10.4998C199 16.2952 196.214 20.9996 192.781 20.9996Z" fill="black"/>
<path d="M6.21861 73.5H192.781C196.214 73.5 199 78.2044 199 83.9998C199 89.7952 196.214 94.4996 192.781 94.4996H6.21861C2.78571 94.4996 3.22543e-06 89.7952 3.22543e-06 83.9998C3.22543e-06 78.2044 2.78571 73.5 6.21861 73.5Z" fill="black"/>
<path d="M6.21871 147H130.594C134.027 147 136.812 151.704 136.812 157.5C136.812 163.296 134.026 168 130.594 168H6.21871C2.78581 168 0.000104757 163.295 0.000104757 157.5C-0.000412168 151.704 2.78581 147 6.21871 147Z" fill="black"/>
</svg>
