<svg width="199" height="110" viewBox="0 0 199 110" fill="none" xmlns="http://www.w3.org/2000/svg">
<path d="M192.781 13.7498H6.21861C2.78571 13.7498 3.22543e-06 10.6695 3.22543e-06 6.87489C3.22543e-06 3.0797 2.78623 0 6.21861 0H192.781C196.214 0 199 3.08027 199 6.87489C199 10.6695 196.214 13.7498 192.781 13.7498Z" fill="black"/>
<path d="M6.21861 48.125H192.781C196.214 48.125 199 51.2053 199 54.9999C199 58.7945 196.214 61.8748 192.781 61.8748H6.21861C2.78571 61.8748 3.22543e-06 58.7945 3.22543e-06 54.9999C3.22543e-06 51.2053 2.78571 48.125 6.21861 48.125Z" fill="black"/>
<path d="M6.21871 96.25H130.594C134.027 96.25 136.812 99.3303 136.812 103.125C136.812 106.92 134.026 110 130.594 110H6.21871C2.78581 110 0.000104757 106.92 0.000104757 103.125C-0.000412168 99.3297 2.78581 96.25 6.21871 96.25Z" fill="black"/>
</svg>
