<svg width="114" height="74" viewBox="0 0 114 74" fill="none" xmlns="http://www.w3.org/2000/svg">
<g filter="url(#filter0_d)">
<path d="M105.238 28.8195H16.2567L37.489 8.51685C39.3491 6.73938 39.3491 3.85598 37.489 2.07877C35.6289 0.300242 32.6133 0.300242 30.756 2.07877L1.39506 30.1529C-0.46502 31.9303 -0.46502 34.814 1.39506 36.591L30.756 64.6664C31.6857 65.5559 32.9042 66 34.1225 66C35.3407 66 36.5592 65.5559 37.489 64.6664C39.3491 62.8889 39.3491 60.0055 37.489 58.2285L16.2567 37.9249H105.238C107.868 37.9249 110 35.8863 110 33.372C110 30.8578 107.868 28.8195 105.238 28.8195Z" fill="black"/>
</g>
<defs>
<filter id="filter0_d" x="-4" y="0.744873" width="118" height="73.2551" filterUnits="userSpaceOnUse" color-interpolation-filters="sRGB">
<feFlood flood-opacity="0" result="BackgroundImageFix"/>
<feColorMatrix in="SourceAlpha" type="matrix" values="0 0 0 0 0 0 0 0 0 0 0 0 0 0 0 0 0 0 127 0"/>
<feOffset dy="4"/>
<feGaussianBlur stdDeviation="2"/>
<feColorMatrix type="matrix" values="0 0 0 0 0 0 0 0 0 0 0 0 0 0 0 0 0 0 0.25 0"/>
<feBlend mode="normal" in2="BackgroundImageFix" result="effect1_dropShadow"/>
<feBlend mode="normal" in="SourceGraphic" in2="effect1_dropShadow" result="shape"/>
</filter>
</defs>
</svg>
