<?xml version="1.0" encoding="UTF-8"?>
<svg xmlns="http://www.w3.org/2000/svg" xmlns:xlink="http://www.w3.org/1999/xlink" width="100pt" height="100pt" viewBox="0 0 100 100" version="1.1">
<g id="surface1">
<path style=" stroke:none;fill-rule:nonzero;fill:rgb(0%,0%,0%);fill-opacity:1;" d="M 98.855469 47.234375 C 98.851562 47.234375 98.851562 47.234375 98.851562 47.230469 L 78.441406 26.917969 C 76.910156 25.398438 74.4375 25.402344 72.914062 26.933594 C 71.394531 28.460938 71.398438 30.933594 72.929688 32.457031 L 86.632812 46.09375 L 3.90625 46.09375 C 1.75 46.09375 0 47.84375 0 50 C 0 52.15625 1.75 53.90625 3.90625 53.90625 L 86.632812 53.90625 L 72.929688 67.542969 C 71.398438 69.066406 71.394531 71.539062 72.914062 73.066406 C 74.4375 74.597656 76.910156 74.601562 78.441406 73.082031 L 98.851562 52.769531 C 98.851562 52.765625 98.851562 52.765625 98.855469 52.765625 C 100.382812 51.238281 100.378906 48.757812 98.855469 47.234375 Z M 98.855469 47.234375 "/>
</g>
</svg>
